<mxfile host="Electron" modified="2023-11-13T12:57:50.033Z" agent="Mozilla/5.0 (Windows NT 10.0; Win64; x64) AppleWebKit/537.36 (KHTML, like Gecko) draw.io/21.6.8 Chrome/114.0.5735.289 Electron/25.5.0 Safari/537.36" etag="cGo65BnF3_ELcEyNT2K7" version="21.6.8" type="device">
  <diagram id="C5RBs43oDa-KdzZeNtuy" name="Page-1">
    <mxGraphModel dx="2074" dy="1204" grid="1" gridSize="10" guides="1" tooltips="1" connect="1" arrows="1" fold="1" page="1" pageScale="1" pageWidth="2336" pageHeight="1654" math="0" shadow="0">
      <root>
        <mxCell id="WIyWlLk6GJQsqaUBKTNV-0" />
        <mxCell id="WIyWlLk6GJQsqaUBKTNV-1" parent="WIyWlLk6GJQsqaUBKTNV-0" />
        <mxCell id="KQX5GPK5ouyB3LBMSboQ-0" value="Ucet" style="swimlane;fontStyle=0;childLayout=stackLayout;horizontal=1;startSize=26;fillColor=none;horizontalStack=0;resizeParent=1;resizeParentMax=0;resizeLast=0;collapsible=1;marginBottom=0;whiteSpace=wrap;html=1;" vertex="1" parent="WIyWlLk6GJQsqaUBKTNV-1">
          <mxGeometry x="400" y="40" width="140" height="182" as="geometry" />
        </mxCell>
        <mxCell id="KQX5GPK5ouyB3LBMSboQ-1" value="id: int" style="text;strokeColor=none;fillColor=none;align=left;verticalAlign=top;spacingLeft=4;spacingRight=4;overflow=hidden;rotatable=0;points=[[0,0.5],[1,0.5]];portConstraint=eastwest;whiteSpace=wrap;html=1;" vertex="1" parent="KQX5GPK5ouyB3LBMSboQ-0">
          <mxGeometry y="26" width="140" height="26" as="geometry" />
        </mxCell>
        <mxCell id="KQX5GPK5ouyB3LBMSboQ-6" value="role: Role" style="text;strokeColor=none;fillColor=none;align=left;verticalAlign=top;spacingLeft=4;spacingRight=4;overflow=hidden;rotatable=0;points=[[0,0.5],[1,0.5]];portConstraint=eastwest;whiteSpace=wrap;html=1;" vertex="1" parent="KQX5GPK5ouyB3LBMSboQ-0">
          <mxGeometry y="52" width="140" height="26" as="geometry" />
        </mxCell>
        <mxCell id="KQX5GPK5ouyB3LBMSboQ-2" value="email: string" style="text;strokeColor=none;fillColor=none;align=left;verticalAlign=top;spacingLeft=4;spacingRight=4;overflow=hidden;rotatable=0;points=[[0,0.5],[1,0.5]];portConstraint=eastwest;whiteSpace=wrap;html=1;" vertex="1" parent="KQX5GPK5ouyB3LBMSboQ-0">
          <mxGeometry y="78" width="140" height="26" as="geometry" />
        </mxCell>
        <mxCell id="KQX5GPK5ouyB3LBMSboQ-3" value="heslo: string" style="text;strokeColor=none;fillColor=none;align=left;verticalAlign=top;spacingLeft=4;spacingRight=4;overflow=hidden;rotatable=0;points=[[0,0.5],[1,0.5]];portConstraint=eastwest;whiteSpace=wrap;html=1;" vertex="1" parent="KQX5GPK5ouyB3LBMSboQ-0">
          <mxGeometry y="104" width="140" height="26" as="geometry" />
        </mxCell>
        <mxCell id="KQX5GPK5ouyB3LBMSboQ-4" value="jmeno: string" style="text;strokeColor=none;fillColor=none;align=left;verticalAlign=top;spacingLeft=4;spacingRight=4;overflow=hidden;rotatable=0;points=[[0,0.5],[1,0.5]];portConstraint=eastwest;whiteSpace=wrap;html=1;" vertex="1" parent="KQX5GPK5ouyB3LBMSboQ-0">
          <mxGeometry y="130" width="140" height="26" as="geometry" />
        </mxCell>
        <mxCell id="KQX5GPK5ouyB3LBMSboQ-5" value="prijmeni: string" style="text;strokeColor=none;fillColor=none;align=left;verticalAlign=top;spacingLeft=4;spacingRight=4;overflow=hidden;rotatable=0;points=[[0,0.5],[1,0.5]];portConstraint=eastwest;whiteSpace=wrap;html=1;" vertex="1" parent="KQX5GPK5ouyB3LBMSboQ-0">
          <mxGeometry y="156" width="140" height="26" as="geometry" />
        </mxCell>
        <mxCell id="KQX5GPK5ouyB3LBMSboQ-9" value="&amp;lt;&amp;lt;enumeraion&amp;gt;&amp;gt;&lt;br&gt;Role" style="swimlane;fontStyle=0;childLayout=stackLayout;horizontal=1;startSize=26;fillColor=none;horizontalStack=0;resizeParent=1;resizeParentMax=0;resizeLast=0;collapsible=1;marginBottom=0;whiteSpace=wrap;html=1;" vertex="1" parent="WIyWlLk6GJQsqaUBKTNV-1">
          <mxGeometry x="550" y="40" width="140" height="156" as="geometry" />
        </mxCell>
        <mxCell id="KQX5GPK5ouyB3LBMSboQ-14" value="ADMIN" style="text;strokeColor=none;fillColor=none;align=left;verticalAlign=top;spacingLeft=4;spacingRight=4;overflow=hidden;rotatable=0;points=[[0,0.5],[1,0.5]];portConstraint=eastwest;whiteSpace=wrap;html=1;" vertex="1" parent="KQX5GPK5ouyB3LBMSboQ-9">
          <mxGeometry y="26" width="140" height="26" as="geometry" />
        </mxCell>
        <mxCell id="KQX5GPK5ouyB3LBMSboQ-10" value="SEFREDAKTOR" style="text;strokeColor=none;fillColor=none;align=left;verticalAlign=top;spacingLeft=4;spacingRight=4;overflow=hidden;rotatable=0;points=[[0,0.5],[1,0.5]];portConstraint=eastwest;whiteSpace=wrap;html=1;" vertex="1" parent="KQX5GPK5ouyB3LBMSboQ-9">
          <mxGeometry y="52" width="140" height="26" as="geometry" />
        </mxCell>
        <mxCell id="KQX5GPK5ouyB3LBMSboQ-11" value="REDAKTOR" style="text;strokeColor=none;fillColor=none;align=left;verticalAlign=top;spacingLeft=4;spacingRight=4;overflow=hidden;rotatable=0;points=[[0,0.5],[1,0.5]];portConstraint=eastwest;whiteSpace=wrap;html=1;" vertex="1" parent="KQX5GPK5ouyB3LBMSboQ-9">
          <mxGeometry y="78" width="140" height="26" as="geometry" />
        </mxCell>
        <mxCell id="KQX5GPK5ouyB3LBMSboQ-12" value="RECENZENT" style="text;strokeColor=none;fillColor=none;align=left;verticalAlign=top;spacingLeft=4;spacingRight=4;overflow=hidden;rotatable=0;points=[[0,0.5],[1,0.5]];portConstraint=eastwest;whiteSpace=wrap;html=1;" vertex="1" parent="KQX5GPK5ouyB3LBMSboQ-9">
          <mxGeometry y="104" width="140" height="26" as="geometry" />
        </mxCell>
        <mxCell id="KQX5GPK5ouyB3LBMSboQ-13" value="AUTOR" style="text;strokeColor=none;fillColor=none;align=left;verticalAlign=top;spacingLeft=4;spacingRight=4;overflow=hidden;rotatable=0;points=[[0,0.5],[1,0.5]];portConstraint=eastwest;whiteSpace=wrap;html=1;" vertex="1" parent="KQX5GPK5ouyB3LBMSboQ-9">
          <mxGeometry y="130" width="140" height="26" as="geometry" />
        </mxCell>
        <mxCell id="KQX5GPK5ouyB3LBMSboQ-24" value="Admin" style="swimlane;fontStyle=0;childLayout=stackLayout;horizontal=1;startSize=26;fillColor=none;horizontalStack=0;resizeParent=1;resizeParentMax=0;resizeLast=0;collapsible=1;marginBottom=0;whiteSpace=wrap;html=1;" vertex="1" parent="WIyWlLk6GJQsqaUBKTNV-1">
          <mxGeometry x="190" y="330" width="140" height="52" as="geometry" />
        </mxCell>
        <mxCell id="KQX5GPK5ouyB3LBMSboQ-28" value="Sefredaktor" style="swimlane;fontStyle=0;childLayout=stackLayout;horizontal=1;startSize=26;fillColor=none;horizontalStack=0;resizeParent=1;resizeParentMax=0;resizeLast=0;collapsible=1;marginBottom=0;whiteSpace=wrap;html=1;" vertex="1" parent="WIyWlLk6GJQsqaUBKTNV-1">
          <mxGeometry x="350" y="330" width="140" height="52" as="geometry" />
        </mxCell>
        <mxCell id="KQX5GPK5ouyB3LBMSboQ-29" value="Recenzent" style="swimlane;fontStyle=0;childLayout=stackLayout;horizontal=1;startSize=26;fillColor=none;horizontalStack=0;resizeParent=1;resizeParentMax=0;resizeLast=0;collapsible=1;marginBottom=0;whiteSpace=wrap;html=1;" vertex="1" parent="WIyWlLk6GJQsqaUBKTNV-1">
          <mxGeometry x="510" y="330" width="140" height="52" as="geometry" />
        </mxCell>
        <mxCell id="KQX5GPK5ouyB3LBMSboQ-30" value="Redaktor" style="swimlane;fontStyle=0;childLayout=stackLayout;horizontal=1;startSize=26;fillColor=none;horizontalStack=0;resizeParent=1;resizeParentMax=0;resizeLast=0;collapsible=1;marginBottom=0;whiteSpace=wrap;html=1;" vertex="1" parent="WIyWlLk6GJQsqaUBKTNV-1">
          <mxGeometry x="670" y="330" width="140" height="52" as="geometry" />
        </mxCell>
        <mxCell id="KQX5GPK5ouyB3LBMSboQ-31" value="Autor" style="swimlane;fontStyle=0;childLayout=stackLayout;horizontal=1;startSize=26;fillColor=none;horizontalStack=0;resizeParent=1;resizeParentMax=0;resizeLast=0;collapsible=1;marginBottom=0;whiteSpace=wrap;html=1;" vertex="1" parent="WIyWlLk6GJQsqaUBKTNV-1">
          <mxGeometry x="830" y="330" width="140" height="52" as="geometry" />
        </mxCell>
        <mxCell id="KQX5GPK5ouyB3LBMSboQ-32" value="Extends" style="endArrow=block;endSize=16;endFill=0;html=1;rounded=0;entryX=0.012;entryY=1.095;entryDx=0;entryDy=0;entryPerimeter=0;exitX=0.5;exitY=0;exitDx=0;exitDy=0;" edge="1" parent="WIyWlLk6GJQsqaUBKTNV-1" source="KQX5GPK5ouyB3LBMSboQ-24" target="KQX5GPK5ouyB3LBMSboQ-5">
          <mxGeometry width="160" relative="1" as="geometry">
            <mxPoint x="430" y="440" as="sourcePoint" />
            <mxPoint x="590" y="440" as="targetPoint" />
          </mxGeometry>
        </mxCell>
        <mxCell id="KQX5GPK5ouyB3LBMSboQ-33" value="Extends" style="endArrow=block;endSize=16;endFill=0;html=1;rounded=0;entryX=0.224;entryY=1.122;entryDx=0;entryDy=0;entryPerimeter=0;exitX=0.586;exitY=0;exitDx=0;exitDy=0;exitPerimeter=0;" edge="1" parent="WIyWlLk6GJQsqaUBKTNV-1" source="KQX5GPK5ouyB3LBMSboQ-28" target="KQX5GPK5ouyB3LBMSboQ-5">
          <mxGeometry width="160" relative="1" as="geometry">
            <mxPoint x="270" y="340" as="sourcePoint" />
            <mxPoint x="412" y="234" as="targetPoint" />
          </mxGeometry>
        </mxCell>
        <mxCell id="KQX5GPK5ouyB3LBMSboQ-34" value="Extends" style="endArrow=block;endSize=16;endFill=0;html=1;rounded=0;entryX=0.426;entryY=1.095;entryDx=0;entryDy=0;entryPerimeter=0;exitX=0.5;exitY=0;exitDx=0;exitDy=0;" edge="1" parent="WIyWlLk6GJQsqaUBKTNV-1" source="KQX5GPK5ouyB3LBMSboQ-29" target="KQX5GPK5ouyB3LBMSboQ-5">
          <mxGeometry width="160" relative="1" as="geometry">
            <mxPoint x="480" y="300" as="sourcePoint" />
            <mxPoint x="422" y="244" as="targetPoint" />
          </mxGeometry>
        </mxCell>
        <mxCell id="KQX5GPK5ouyB3LBMSboQ-35" value="Extends" style="endArrow=block;endSize=16;endFill=0;html=1;rounded=0;exitX=0.5;exitY=0;exitDx=0;exitDy=0;" edge="1" parent="WIyWlLk6GJQsqaUBKTNV-1" source="KQX5GPK5ouyB3LBMSboQ-30">
          <mxGeometry width="160" relative="1" as="geometry">
            <mxPoint x="430" y="440" as="sourcePoint" />
            <mxPoint x="510" y="220" as="targetPoint" />
            <Array as="points">
              <mxPoint x="610" y="310" />
            </Array>
          </mxGeometry>
        </mxCell>
        <mxCell id="KQX5GPK5ouyB3LBMSboQ-36" value="Extends" style="endArrow=block;endSize=16;endFill=0;html=1;rounded=0;exitX=0.5;exitY=0;exitDx=0;exitDy=0;entryX=0.998;entryY=0.804;entryDx=0;entryDy=0;entryPerimeter=0;" edge="1" parent="WIyWlLk6GJQsqaUBKTNV-1" target="KQX5GPK5ouyB3LBMSboQ-5">
          <mxGeometry width="160" relative="1" as="geometry">
            <mxPoint x="900" y="330" as="sourcePoint" />
            <mxPoint x="560" y="220" as="targetPoint" />
            <Array as="points">
              <mxPoint x="790" y="240" />
            </Array>
          </mxGeometry>
        </mxCell>
        <mxCell id="KQX5GPK5ouyB3LBMSboQ-38" value="Clanek" style="swimlane;fontStyle=0;childLayout=stackLayout;horizontal=1;startSize=26;fillColor=none;horizontalStack=0;resizeParent=1;resizeParentMax=0;resizeLast=0;collapsible=1;marginBottom=0;whiteSpace=wrap;html=1;" vertex="1" parent="WIyWlLk6GJQsqaUBKTNV-1">
          <mxGeometry x="790" y="510" width="180" height="130" as="geometry" />
        </mxCell>
        <mxCell id="KQX5GPK5ouyB3LBMSboQ-39" value="id: int" style="text;strokeColor=none;fillColor=none;align=left;verticalAlign=top;spacingLeft=4;spacingRight=4;overflow=hidden;rotatable=0;points=[[0,0.5],[1,0.5]];portConstraint=eastwest;whiteSpace=wrap;html=1;" vertex="1" parent="KQX5GPK5ouyB3LBMSboQ-38">
          <mxGeometry y="26" width="180" height="26" as="geometry" />
        </mxCell>
        <mxCell id="KQX5GPK5ouyB3LBMSboQ-41" value="stav_autor: StavAutor" style="text;strokeColor=none;fillColor=none;align=left;verticalAlign=top;spacingLeft=4;spacingRight=4;overflow=hidden;rotatable=0;points=[[0,0.5],[1,0.5]];portConstraint=eastwest;whiteSpace=wrap;html=1;" vertex="1" parent="KQX5GPK5ouyB3LBMSboQ-38">
          <mxGeometry y="52" width="180" height="26" as="geometry" />
        </mxCell>
        <mxCell id="KQX5GPK5ouyB3LBMSboQ-66" value="stav_redakce: StavRedakce" style="text;strokeColor=none;fillColor=none;align=left;verticalAlign=top;spacingLeft=4;spacingRight=4;overflow=hidden;rotatable=0;points=[[0,0.5],[1,0.5]];portConstraint=eastwest;whiteSpace=wrap;html=1;" vertex="1" parent="KQX5GPK5ouyB3LBMSboQ-38">
          <mxGeometry y="78" width="180" height="26" as="geometry" />
        </mxCell>
        <mxCell id="KQX5GPK5ouyB3LBMSboQ-184" value="autorsky_tym: string" style="text;strokeColor=none;fillColor=none;align=left;verticalAlign=top;spacingLeft=4;spacingRight=4;overflow=hidden;rotatable=0;points=[[0,0.5],[1,0.5]];portConstraint=eastwest;whiteSpace=wrap;html=1;" vertex="1" parent="KQX5GPK5ouyB3LBMSboQ-38">
          <mxGeometry y="104" width="180" height="26" as="geometry" />
        </mxCell>
        <mxCell id="KQX5GPK5ouyB3LBMSboQ-42" value="RecenzniRizeni" style="swimlane;fontStyle=0;childLayout=stackLayout;horizontal=1;startSize=26;fillColor=none;horizontalStack=0;resizeParent=1;resizeParentMax=0;resizeLast=0;collapsible=1;marginBottom=0;whiteSpace=wrap;html=1;" vertex="1" parent="WIyWlLk6GJQsqaUBKTNV-1">
          <mxGeometry x="1098" y="510" width="140" height="104" as="geometry" />
        </mxCell>
        <mxCell id="KQX5GPK5ouyB3LBMSboQ-43" value="id: int" style="text;strokeColor=none;fillColor=none;align=left;verticalAlign=top;spacingLeft=4;spacingRight=4;overflow=hidden;rotatable=0;points=[[0,0.5],[1,0.5]];portConstraint=eastwest;whiteSpace=wrap;html=1;" vertex="1" parent="KQX5GPK5ouyB3LBMSboQ-42">
          <mxGeometry y="26" width="140" height="26" as="geometry" />
        </mxCell>
        <mxCell id="KQX5GPK5ouyB3LBMSboQ-44" value="od: date" style="text;strokeColor=none;fillColor=none;align=left;verticalAlign=top;spacingLeft=4;spacingRight=4;overflow=hidden;rotatable=0;points=[[0,0.5],[1,0.5]];portConstraint=eastwest;whiteSpace=wrap;html=1;" vertex="1" parent="KQX5GPK5ouyB3LBMSboQ-42">
          <mxGeometry y="52" width="140" height="26" as="geometry" />
        </mxCell>
        <mxCell id="KQX5GPK5ouyB3LBMSboQ-45" value="do: date" style="text;strokeColor=none;fillColor=none;align=left;verticalAlign=top;spacingLeft=4;spacingRight=4;overflow=hidden;rotatable=0;points=[[0,0.5],[1,0.5]];portConstraint=eastwest;whiteSpace=wrap;html=1;" vertex="1" parent="KQX5GPK5ouyB3LBMSboQ-42">
          <mxGeometry y="78" width="140" height="26" as="geometry" />
        </mxCell>
        <mxCell id="KQX5GPK5ouyB3LBMSboQ-46" value="Tisk" style="swimlane;fontStyle=0;childLayout=stackLayout;horizontal=1;startSize=26;fillColor=none;horizontalStack=0;resizeParent=1;resizeParentMax=0;resizeLast=0;collapsible=1;marginBottom=0;whiteSpace=wrap;html=1;" vertex="1" parent="WIyWlLk6GJQsqaUBKTNV-1">
          <mxGeometry x="1370" y="510" width="140" height="104" as="geometry" />
        </mxCell>
        <mxCell id="KQX5GPK5ouyB3LBMSboQ-47" value="id: int" style="text;strokeColor=none;fillColor=none;align=left;verticalAlign=top;spacingLeft=4;spacingRight=4;overflow=hidden;rotatable=0;points=[[0,0.5],[1,0.5]];portConstraint=eastwest;whiteSpace=wrap;html=1;" vertex="1" parent="KQX5GPK5ouyB3LBMSboQ-46">
          <mxGeometry y="26" width="140" height="26" as="geometry" />
        </mxCell>
        <mxCell id="KQX5GPK5ouyB3LBMSboQ-48" value="datum: date" style="text;strokeColor=none;fillColor=none;align=left;verticalAlign=top;spacingLeft=4;spacingRight=4;overflow=hidden;rotatable=0;points=[[0,0.5],[1,0.5]];portConstraint=eastwest;whiteSpace=wrap;html=1;" vertex="1" parent="KQX5GPK5ouyB3LBMSboQ-46">
          <mxGeometry y="52" width="140" height="26" as="geometry" />
        </mxCell>
        <mxCell id="KQX5GPK5ouyB3LBMSboQ-49" value="kapacita: int" style="text;strokeColor=none;fillColor=none;align=left;verticalAlign=top;spacingLeft=4;spacingRight=4;overflow=hidden;rotatable=0;points=[[0,0.5],[1,0.5]];portConstraint=eastwest;whiteSpace=wrap;html=1;" vertex="1" parent="KQX5GPK5ouyB3LBMSboQ-46">
          <mxGeometry y="78" width="140" height="26" as="geometry" />
        </mxCell>
        <mxCell id="KQX5GPK5ouyB3LBMSboQ-50" value="" style="endArrow=open;endFill=1;endSize=12;html=1;rounded=0;" edge="1" parent="WIyWlLk6GJQsqaUBKTNV-1">
          <mxGeometry width="160" relative="1" as="geometry">
            <mxPoint x="1370" y="570" as="sourcePoint" />
            <mxPoint x="1240" y="570" as="targetPoint" />
          </mxGeometry>
        </mxCell>
        <mxCell id="KQX5GPK5ouyB3LBMSboQ-51" value="" style="endArrow=open;endFill=1;endSize=12;html=1;rounded=0;" edge="1" parent="WIyWlLk6GJQsqaUBKTNV-1">
          <mxGeometry width="160" relative="1" as="geometry">
            <mxPoint x="1100" y="570" as="sourcePoint" />
            <mxPoint x="970" y="570" as="targetPoint" />
          </mxGeometry>
        </mxCell>
        <mxCell id="KQX5GPK5ouyB3LBMSboQ-53" value="1" style="text;html=1;strokeColor=none;fillColor=none;align=center;verticalAlign=middle;whiteSpace=wrap;rounded=0;" vertex="1" parent="WIyWlLk6GJQsqaUBKTNV-1">
          <mxGeometry x="1360" y="547" width="10" height="30" as="geometry" />
        </mxCell>
        <mxCell id="KQX5GPK5ouyB3LBMSboQ-54" value="1" style="text;html=1;strokeColor=none;fillColor=none;align=center;verticalAlign=middle;whiteSpace=wrap;rounded=0;" vertex="1" parent="WIyWlLk6GJQsqaUBKTNV-1">
          <mxGeometry x="1260" y="547" width="10" height="30" as="geometry" />
        </mxCell>
        <mxCell id="KQX5GPK5ouyB3LBMSboQ-56" value="1" style="text;html=1;strokeColor=none;fillColor=none;align=center;verticalAlign=middle;whiteSpace=wrap;rounded=0;" vertex="1" parent="WIyWlLk6GJQsqaUBKTNV-1">
          <mxGeometry x="1088" y="547" width="10" height="30" as="geometry" />
        </mxCell>
        <mxCell id="KQX5GPK5ouyB3LBMSboQ-59" value="1...*" style="text;html=1;strokeColor=none;fillColor=none;align=center;verticalAlign=middle;whiteSpace=wrap;rounded=0;" vertex="1" parent="WIyWlLk6GJQsqaUBKTNV-1">
          <mxGeometry x="990" y="547" width="30" height="30" as="geometry" />
        </mxCell>
        <mxCell id="KQX5GPK5ouyB3LBMSboQ-62" value="0...*" style="text;html=1;strokeColor=none;fillColor=none;align=center;verticalAlign=middle;whiteSpace=wrap;rounded=0;" vertex="1" parent="WIyWlLk6GJQsqaUBKTNV-1">
          <mxGeometry x="900" y="470" width="30" height="30" as="geometry" />
        </mxCell>
        <mxCell id="KQX5GPK5ouyB3LBMSboQ-64" value="" style="endArrow=open;endFill=1;endSize=12;html=1;rounded=0;exitX=0.5;exitY=1;exitDx=0;exitDy=0;entryX=0.628;entryY=0.016;entryDx=0;entryDy=0;entryPerimeter=0;" edge="1" parent="WIyWlLk6GJQsqaUBKTNV-1" source="KQX5GPK5ouyB3LBMSboQ-31" target="KQX5GPK5ouyB3LBMSboQ-38">
          <mxGeometry width="160" relative="1" as="geometry">
            <mxPoint x="900" y="400" as="sourcePoint" />
            <mxPoint x="790" y="460" as="targetPoint" />
          </mxGeometry>
        </mxCell>
        <mxCell id="KQX5GPK5ouyB3LBMSboQ-65" value="1" style="text;html=1;strokeColor=none;fillColor=none;align=center;verticalAlign=middle;whiteSpace=wrap;rounded=0;" vertex="1" parent="WIyWlLk6GJQsqaUBKTNV-1">
          <mxGeometry x="900" y="382" width="10" height="30" as="geometry" />
        </mxCell>
        <mxCell id="KQX5GPK5ouyB3LBMSboQ-67" value="&amp;lt;&amp;lt;enumeraion&amp;gt;&amp;gt;&lt;br&gt;StavAutor" style="swimlane;fontStyle=0;childLayout=stackLayout;horizontal=1;startSize=26;fillColor=none;horizontalStack=0;resizeParent=1;resizeParentMax=0;resizeLast=0;collapsible=1;marginBottom=0;whiteSpace=wrap;html=1;" vertex="1" parent="WIyWlLk6GJQsqaUBKTNV-1">
          <mxGeometry x="958" y="40" width="262" height="260" as="geometry" />
        </mxCell>
        <mxCell id="KQX5GPK5ouyB3LBMSboQ-68" value="PODANO" style="text;strokeColor=none;fillColor=none;align=left;verticalAlign=top;spacingLeft=4;spacingRight=4;overflow=hidden;rotatable=0;points=[[0,0.5],[1,0.5]];portConstraint=eastwest;whiteSpace=wrap;html=1;" vertex="1" parent="KQX5GPK5ouyB3LBMSboQ-67">
          <mxGeometry y="26" width="262" height="26" as="geometry" />
        </mxCell>
        <mxCell id="KQX5GPK5ouyB3LBMSboQ-72" value="TEMATICKA_NEVHODNOST" style="text;strokeColor=none;fillColor=none;align=left;verticalAlign=top;spacingLeft=4;spacingRight=4;overflow=hidden;rotatable=0;points=[[0,0.5],[1,0.5]];portConstraint=eastwest;whiteSpace=wrap;html=1;" vertex="1" parent="KQX5GPK5ouyB3LBMSboQ-67">
          <mxGeometry y="52" width="262" height="26" as="geometry" />
        </mxCell>
        <mxCell id="KQX5GPK5ouyB3LBMSboQ-70" value="PREDANO_RECENZENTUM" style="text;strokeColor=none;fillColor=none;align=left;verticalAlign=top;spacingLeft=4;spacingRight=4;overflow=hidden;rotatable=0;points=[[0,0.5],[1,0.5]];portConstraint=eastwest;whiteSpace=wrap;html=1;" vertex="1" parent="KQX5GPK5ouyB3LBMSboQ-67">
          <mxGeometry y="78" width="262" height="26" as="geometry" />
        </mxCell>
        <mxCell id="KQX5GPK5ouyB3LBMSboQ-69" value="ZAMITNUTO" style="text;strokeColor=none;fillColor=none;align=left;verticalAlign=top;spacingLeft=4;spacingRight=4;overflow=hidden;rotatable=0;points=[[0,0.5],[1,0.5]];portConstraint=eastwest;whiteSpace=wrap;html=1;" vertex="1" parent="KQX5GPK5ouyB3LBMSboQ-67">
          <mxGeometry y="104" width="262" height="26" as="geometry" />
        </mxCell>
        <mxCell id="KQX5GPK5ouyB3LBMSboQ-71" value="PRIJATO_S_VYHRADAMI" style="text;strokeColor=none;fillColor=none;align=left;verticalAlign=top;spacingLeft=4;spacingRight=4;overflow=hidden;rotatable=0;points=[[0,0.5],[1,0.5]];portConstraint=eastwest;whiteSpace=wrap;html=1;" vertex="1" parent="KQX5GPK5ouyB3LBMSboQ-67">
          <mxGeometry y="130" width="262" height="26" as="geometry" />
        </mxCell>
        <mxCell id="KQX5GPK5ouyB3LBMSboQ-73" value="OPRAVA_AUTORA" style="text;strokeColor=none;fillColor=none;align=left;verticalAlign=top;spacingLeft=4;spacingRight=4;overflow=hidden;rotatable=0;points=[[0,0.5],[1,0.5]];portConstraint=eastwest;whiteSpace=wrap;html=1;" vertex="1" parent="KQX5GPK5ouyB3LBMSboQ-67">
          <mxGeometry y="156" width="262" height="26" as="geometry" />
        </mxCell>
        <mxCell id="KQX5GPK5ouyB3LBMSboQ-74" value="DODATECENE_VYJADRENI_RECENZENTA" style="text;strokeColor=none;fillColor=none;align=left;verticalAlign=top;spacingLeft=4;spacingRight=4;overflow=hidden;rotatable=0;points=[[0,0.5],[1,0.5]];portConstraint=eastwest;whiteSpace=wrap;html=1;" vertex="1" parent="KQX5GPK5ouyB3LBMSboQ-67">
          <mxGeometry y="182" width="262" height="26" as="geometry" />
        </mxCell>
        <mxCell id="KQX5GPK5ouyB3LBMSboQ-75" value="VYJADRENI_SEFREDAKTORA" style="text;strokeColor=none;fillColor=none;align=left;verticalAlign=top;spacingLeft=4;spacingRight=4;overflow=hidden;rotatable=0;points=[[0,0.5],[1,0.5]];portConstraint=eastwest;whiteSpace=wrap;html=1;" vertex="1" parent="KQX5GPK5ouyB3LBMSboQ-67">
          <mxGeometry y="208" width="262" height="26" as="geometry" />
        </mxCell>
        <mxCell id="KQX5GPK5ouyB3LBMSboQ-76" value="PRIJATO" style="text;strokeColor=none;fillColor=none;align=left;verticalAlign=top;spacingLeft=4;spacingRight=4;overflow=hidden;rotatable=0;points=[[0,0.5],[1,0.5]];portConstraint=eastwest;whiteSpace=wrap;html=1;" vertex="1" parent="KQX5GPK5ouyB3LBMSboQ-67">
          <mxGeometry y="234" width="262" height="26" as="geometry" />
        </mxCell>
        <mxCell id="KQX5GPK5ouyB3LBMSboQ-77" value="&amp;lt;&amp;lt;enumeraion&amp;gt;&amp;gt;&lt;br&gt;StavRedakce" style="swimlane;fontStyle=0;childLayout=stackLayout;horizontal=1;startSize=26;fillColor=none;horizontalStack=0;resizeParent=1;resizeParentMax=0;resizeLast=0;collapsible=1;marginBottom=0;whiteSpace=wrap;html=1;" vertex="1" parent="WIyWlLk6GJQsqaUBKTNV-1">
          <mxGeometry x="1238" y="40" width="262" height="234" as="geometry" />
        </mxCell>
        <mxCell id="KQX5GPK5ouyB3LBMSboQ-78" value="NOVE_PODANY" style="text;strokeColor=none;fillColor=none;align=left;verticalAlign=top;spacingLeft=4;spacingRight=4;overflow=hidden;rotatable=0;points=[[0,0.5],[1,0.5]];portConstraint=eastwest;whiteSpace=wrap;html=1;" vertex="1" parent="KQX5GPK5ouyB3LBMSboQ-77">
          <mxGeometry y="26" width="262" height="26" as="geometry" />
        </mxCell>
        <mxCell id="KQX5GPK5ouyB3LBMSboQ-79" value="CEKA_NA_STANOVENI_RECENZENTU" style="text;strokeColor=none;fillColor=none;align=left;verticalAlign=top;spacingLeft=4;spacingRight=4;overflow=hidden;rotatable=0;points=[[0,0.5],[1,0.5]];portConstraint=eastwest;whiteSpace=wrap;html=1;" vertex="1" parent="KQX5GPK5ouyB3LBMSboQ-77">
          <mxGeometry y="52" width="262" height="26" as="geometry" />
        </mxCell>
        <mxCell id="KQX5GPK5ouyB3LBMSboQ-80" value="POSUDEK_1_DORUCEN" style="text;strokeColor=none;fillColor=none;align=left;verticalAlign=top;spacingLeft=4;spacingRight=4;overflow=hidden;rotatable=0;points=[[0,0.5],[1,0.5]];portConstraint=eastwest;whiteSpace=wrap;html=1;" vertex="1" parent="KQX5GPK5ouyB3LBMSboQ-77">
          <mxGeometry y="78" width="262" height="26" as="geometry" />
        </mxCell>
        <mxCell id="KQX5GPK5ouyB3LBMSboQ-81" value="POSUDEK_2_DORUCEN" style="text;strokeColor=none;fillColor=none;align=left;verticalAlign=top;spacingLeft=4;spacingRight=4;overflow=hidden;rotatable=0;points=[[0,0.5],[1,0.5]];portConstraint=eastwest;whiteSpace=wrap;html=1;" vertex="1" parent="KQX5GPK5ouyB3LBMSboQ-77">
          <mxGeometry y="104" width="262" height="26" as="geometry" />
        </mxCell>
        <mxCell id="KQX5GPK5ouyB3LBMSboQ-82" value="POSUDKY_ODESLANY_AUTOROVI" style="text;strokeColor=none;fillColor=none;align=left;verticalAlign=top;spacingLeft=4;spacingRight=4;overflow=hidden;rotatable=0;points=[[0,0.5],[1,0.5]];portConstraint=eastwest;whiteSpace=wrap;html=1;" vertex="1" parent="KQX5GPK5ouyB3LBMSboQ-77">
          <mxGeometry y="130" width="262" height="26" as="geometry" />
        </mxCell>
        <mxCell id="KQX5GPK5ouyB3LBMSboQ-83" value="UPRAVA_TEXTU_AUTOREM" style="text;strokeColor=none;fillColor=none;align=left;verticalAlign=top;spacingLeft=4;spacingRight=4;overflow=hidden;rotatable=0;points=[[0,0.5],[1,0.5]];portConstraint=eastwest;whiteSpace=wrap;html=1;" vertex="1" parent="KQX5GPK5ouyB3LBMSboQ-77">
          <mxGeometry y="156" width="262" height="26" as="geometry" />
        </mxCell>
        <mxCell id="KQX5GPK5ouyB3LBMSboQ-84" value="PRIJATO" style="text;strokeColor=none;fillColor=none;align=left;verticalAlign=top;spacingLeft=4;spacingRight=4;overflow=hidden;rotatable=0;points=[[0,0.5],[1,0.5]];portConstraint=eastwest;whiteSpace=wrap;html=1;" vertex="1" parent="KQX5GPK5ouyB3LBMSboQ-77">
          <mxGeometry y="182" width="262" height="26" as="geometry" />
        </mxCell>
        <mxCell id="KQX5GPK5ouyB3LBMSboQ-86" value="ZAMITNUTO" style="text;strokeColor=none;fillColor=none;align=left;verticalAlign=top;spacingLeft=4;spacingRight=4;overflow=hidden;rotatable=0;points=[[0,0.5],[1,0.5]];portConstraint=eastwest;whiteSpace=wrap;html=1;" vertex="1" parent="KQX5GPK5ouyB3LBMSboQ-77">
          <mxGeometry y="208" width="262" height="26" as="geometry" />
        </mxCell>
        <mxCell id="KQX5GPK5ouyB3LBMSboQ-87" value="VerzeClanku" style="swimlane;fontStyle=0;childLayout=stackLayout;horizontal=1;startSize=26;fillColor=none;horizontalStack=0;resizeParent=1;resizeParentMax=0;resizeLast=0;collapsible=1;marginBottom=0;whiteSpace=wrap;html=1;" vertex="1" parent="WIyWlLk6GJQsqaUBKTNV-1">
          <mxGeometry x="790" y="724" width="180" height="130" as="geometry" />
        </mxCell>
        <mxCell id="KQX5GPK5ouyB3LBMSboQ-88" value="id: int" style="text;strokeColor=none;fillColor=none;align=left;verticalAlign=top;spacingLeft=4;spacingRight=4;overflow=hidden;rotatable=0;points=[[0,0.5],[1,0.5]];portConstraint=eastwest;whiteSpace=wrap;html=1;" vertex="1" parent="KQX5GPK5ouyB3LBMSboQ-87">
          <mxGeometry y="26" width="180" height="26" as="geometry" />
        </mxCell>
        <mxCell id="KQX5GPK5ouyB3LBMSboQ-96" value="datum_nahrani: date" style="text;strokeColor=none;fillColor=none;align=left;verticalAlign=top;spacingLeft=4;spacingRight=4;overflow=hidden;rotatable=0;points=[[0,0.5],[1,0.5]];portConstraint=eastwest;whiteSpace=wrap;html=1;" vertex="1" parent="KQX5GPK5ouyB3LBMSboQ-87">
          <mxGeometry y="52" width="180" height="26" as="geometry" />
        </mxCell>
        <mxCell id="KQX5GPK5ouyB3LBMSboQ-97" value="soubor_clanek: string" style="text;strokeColor=none;fillColor=none;align=left;verticalAlign=top;spacingLeft=4;spacingRight=4;overflow=hidden;rotatable=0;points=[[0,0.5],[1,0.5]];portConstraint=eastwest;whiteSpace=wrap;html=1;" vertex="1" parent="KQX5GPK5ouyB3LBMSboQ-87">
          <mxGeometry y="78" width="180" height="26" as="geometry" />
        </mxCell>
        <mxCell id="KQX5GPK5ouyB3LBMSboQ-179" value="zpristupnen_recenzentum: bool" style="text;strokeColor=none;fillColor=none;align=left;verticalAlign=top;spacingLeft=4;spacingRight=4;overflow=hidden;rotatable=0;points=[[0,0.5],[1,0.5]];portConstraint=eastwest;whiteSpace=wrap;html=1;" vertex="1" parent="KQX5GPK5ouyB3LBMSboQ-87">
          <mxGeometry y="104" width="180" height="26" as="geometry" />
        </mxCell>
        <mxCell id="KQX5GPK5ouyB3LBMSboQ-93" value="" style="endArrow=open;endFill=1;endSize=12;html=1;rounded=0;" edge="1" parent="WIyWlLk6GJQsqaUBKTNV-1">
          <mxGeometry width="160" relative="1" as="geometry">
            <mxPoint x="880" y="640" as="sourcePoint" />
            <mxPoint x="883" y="724" as="targetPoint" />
          </mxGeometry>
        </mxCell>
        <mxCell id="KQX5GPK5ouyB3LBMSboQ-94" value="1" style="text;html=1;strokeColor=none;fillColor=none;align=center;verticalAlign=middle;whiteSpace=wrap;rounded=0;" vertex="1" parent="WIyWlLk6GJQsqaUBKTNV-1">
          <mxGeometry x="885" y="640" width="10" height="30" as="geometry" />
        </mxCell>
        <mxCell id="KQX5GPK5ouyB3LBMSboQ-95" value="1...*" style="text;html=1;strokeColor=none;fillColor=none;align=center;verticalAlign=middle;whiteSpace=wrap;rounded=0;" vertex="1" parent="WIyWlLk6GJQsqaUBKTNV-1">
          <mxGeometry x="885" y="684" width="30" height="30" as="geometry" />
        </mxCell>
        <mxCell id="KQX5GPK5ouyB3LBMSboQ-98" value="Namitka" style="swimlane;fontStyle=0;childLayout=stackLayout;horizontal=1;startSize=26;fillColor=none;horizontalStack=0;resizeParent=1;resizeParentMax=0;resizeLast=0;collapsible=1;marginBottom=0;whiteSpace=wrap;html=1;" vertex="1" parent="WIyWlLk6GJQsqaUBKTNV-1">
          <mxGeometry x="1040" y="723" width="180" height="104" as="geometry" />
        </mxCell>
        <mxCell id="KQX5GPK5ouyB3LBMSboQ-99" value="id: int" style="text;strokeColor=none;fillColor=none;align=left;verticalAlign=top;spacingLeft=4;spacingRight=4;overflow=hidden;rotatable=0;points=[[0,0.5],[1,0.5]];portConstraint=eastwest;whiteSpace=wrap;html=1;" vertex="1" parent="KQX5GPK5ouyB3LBMSboQ-98">
          <mxGeometry y="26" width="180" height="26" as="geometry" />
        </mxCell>
        <mxCell id="KQX5GPK5ouyB3LBMSboQ-100" value="datum: date" style="text;strokeColor=none;fillColor=none;align=left;verticalAlign=top;spacingLeft=4;spacingRight=4;overflow=hidden;rotatable=0;points=[[0,0.5],[1,0.5]];portConstraint=eastwest;whiteSpace=wrap;html=1;" vertex="1" parent="KQX5GPK5ouyB3LBMSboQ-98">
          <mxGeometry y="52" width="180" height="26" as="geometry" />
        </mxCell>
        <mxCell id="KQX5GPK5ouyB3LBMSboQ-101" value="text_namitky: string" style="text;strokeColor=none;fillColor=none;align=left;verticalAlign=top;spacingLeft=4;spacingRight=4;overflow=hidden;rotatable=0;points=[[0,0.5],[1,0.5]];portConstraint=eastwest;whiteSpace=wrap;html=1;" vertex="1" parent="KQX5GPK5ouyB3LBMSboQ-98">
          <mxGeometry y="78" width="180" height="26" as="geometry" />
        </mxCell>
        <mxCell id="KQX5GPK5ouyB3LBMSboQ-102" value="" style="endArrow=open;endFill=1;endSize=12;html=1;rounded=0;exitX=1;exitY=1;exitDx=0;exitDy=0;entryX=0.5;entryY=0;entryDx=0;entryDy=0;" edge="1" parent="WIyWlLk6GJQsqaUBKTNV-1" source="KQX5GPK5ouyB3LBMSboQ-38" target="KQX5GPK5ouyB3LBMSboQ-98">
          <mxGeometry width="160" relative="1" as="geometry">
            <mxPoint x="1088" y="650" as="sourcePoint" />
            <mxPoint x="958" y="650" as="targetPoint" />
          </mxGeometry>
        </mxCell>
        <mxCell id="KQX5GPK5ouyB3LBMSboQ-103" value="1" style="text;html=1;strokeColor=none;fillColor=none;align=center;verticalAlign=middle;whiteSpace=wrap;rounded=0;" vertex="1" parent="WIyWlLk6GJQsqaUBKTNV-1">
          <mxGeometry x="980" y="624" width="10" height="30" as="geometry" />
        </mxCell>
        <mxCell id="KQX5GPK5ouyB3LBMSboQ-106" value="1" style="text;html=1;strokeColor=none;fillColor=none;align=center;verticalAlign=middle;whiteSpace=wrap;rounded=0;" vertex="1" parent="WIyWlLk6GJQsqaUBKTNV-1">
          <mxGeometry x="1100" y="684" width="10" height="30" as="geometry" />
        </mxCell>
        <mxCell id="KQX5GPK5ouyB3LBMSboQ-108" value="KomentarClanek" style="swimlane;fontStyle=0;childLayout=stackLayout;horizontal=1;startSize=26;fillColor=none;horizontalStack=0;resizeParent=1;resizeParentMax=0;resizeLast=0;collapsible=1;marginBottom=0;whiteSpace=wrap;html=1;" vertex="1" parent="WIyWlLk6GJQsqaUBKTNV-1">
          <mxGeometry x="580" y="724" width="180" height="104" as="geometry" />
        </mxCell>
        <mxCell id="KQX5GPK5ouyB3LBMSboQ-109" value="id: int" style="text;strokeColor=none;fillColor=none;align=left;verticalAlign=top;spacingLeft=4;spacingRight=4;overflow=hidden;rotatable=0;points=[[0,0.5],[1,0.5]];portConstraint=eastwest;whiteSpace=wrap;html=1;" vertex="1" parent="KQX5GPK5ouyB3LBMSboQ-108">
          <mxGeometry y="26" width="180" height="26" as="geometry" />
        </mxCell>
        <mxCell id="KQX5GPK5ouyB3LBMSboQ-110" value="datum: date" style="text;strokeColor=none;fillColor=none;align=left;verticalAlign=top;spacingLeft=4;spacingRight=4;overflow=hidden;rotatable=0;points=[[0,0.5],[1,0.5]];portConstraint=eastwest;whiteSpace=wrap;html=1;" vertex="1" parent="KQX5GPK5ouyB3LBMSboQ-108">
          <mxGeometry y="52" width="180" height="26" as="geometry" />
        </mxCell>
        <mxCell id="KQX5GPK5ouyB3LBMSboQ-120" value="text: string" style="text;strokeColor=none;fillColor=none;align=left;verticalAlign=top;spacingLeft=4;spacingRight=4;overflow=hidden;rotatable=0;points=[[0,0.5],[1,0.5]];portConstraint=eastwest;whiteSpace=wrap;html=1;" vertex="1" parent="KQX5GPK5ouyB3LBMSboQ-108">
          <mxGeometry y="78" width="180" height="26" as="geometry" />
        </mxCell>
        <mxCell id="KQX5GPK5ouyB3LBMSboQ-112" value="" style="endArrow=open;endFill=1;endSize=12;html=1;rounded=0;entryX=0.898;entryY=-0.02;entryDx=0;entryDy=0;entryPerimeter=0;" edge="1" parent="WIyWlLk6GJQsqaUBKTNV-1" target="KQX5GPK5ouyB3LBMSboQ-108">
          <mxGeometry width="160" relative="1" as="geometry">
            <mxPoint x="840" y="380" as="sourcePoint" />
            <mxPoint x="744" y="627" as="targetPoint" />
            <Array as="points">
              <mxPoint x="740" y="520" />
            </Array>
          </mxGeometry>
        </mxCell>
        <mxCell id="KQX5GPK5ouyB3LBMSboQ-113" value="1" style="text;html=1;strokeColor=none;fillColor=none;align=center;verticalAlign=middle;whiteSpace=wrap;rounded=0;" vertex="1" parent="WIyWlLk6GJQsqaUBKTNV-1">
          <mxGeometry x="830" y="382" width="10" height="30" as="geometry" />
        </mxCell>
        <mxCell id="KQX5GPK5ouyB3LBMSboQ-115" value="0...*" style="text;html=1;strokeColor=none;fillColor=none;align=center;verticalAlign=middle;whiteSpace=wrap;rounded=0;" vertex="1" parent="WIyWlLk6GJQsqaUBKTNV-1">
          <mxGeometry x="750" y="684" width="30" height="30" as="geometry" />
        </mxCell>
        <mxCell id="KQX5GPK5ouyB3LBMSboQ-116" value="" style="endArrow=open;endFill=1;endSize=12;html=1;rounded=0;entryX=0.707;entryY=-0.015;entryDx=0;entryDy=0;entryPerimeter=0;exitX=0.25;exitY=1;exitDx=0;exitDy=0;" edge="1" parent="WIyWlLk6GJQsqaUBKTNV-1" source="KQX5GPK5ouyB3LBMSboQ-30" target="KQX5GPK5ouyB3LBMSboQ-108">
          <mxGeometry width="160" relative="1" as="geometry">
            <mxPoint x="720" y="380" as="sourcePoint" />
            <mxPoint x="643" y="510" as="targetPoint" />
          </mxGeometry>
        </mxCell>
        <mxCell id="KQX5GPK5ouyB3LBMSboQ-117" value="1" style="text;html=1;strokeColor=none;fillColor=none;align=center;verticalAlign=middle;whiteSpace=wrap;rounded=0;" vertex="1" parent="WIyWlLk6GJQsqaUBKTNV-1">
          <mxGeometry x="690" y="382" width="10" height="30" as="geometry" />
        </mxCell>
        <mxCell id="KQX5GPK5ouyB3LBMSboQ-119" value="0...*" style="text;html=1;strokeColor=none;fillColor=none;align=center;verticalAlign=middle;whiteSpace=wrap;rounded=0;" vertex="1" parent="WIyWlLk6GJQsqaUBKTNV-1">
          <mxGeometry x="680" y="684" width="30" height="30" as="geometry" />
        </mxCell>
        <mxCell id="KQX5GPK5ouyB3LBMSboQ-122" value="Ukol" style="swimlane;fontStyle=0;childLayout=stackLayout;horizontal=1;startSize=26;fillColor=none;horizontalStack=0;resizeParent=1;resizeParentMax=0;resizeLast=0;collapsible=1;marginBottom=0;whiteSpace=wrap;html=1;" vertex="1" parent="WIyWlLk6GJQsqaUBKTNV-1">
          <mxGeometry x="790" y="910" width="180" height="78" as="geometry" />
        </mxCell>
        <mxCell id="KQX5GPK5ouyB3LBMSboQ-123" value="id: int" style="text;strokeColor=none;fillColor=none;align=left;verticalAlign=top;spacingLeft=4;spacingRight=4;overflow=hidden;rotatable=0;points=[[0,0.5],[1,0.5]];portConstraint=eastwest;whiteSpace=wrap;html=1;" vertex="1" parent="KQX5GPK5ouyB3LBMSboQ-122">
          <mxGeometry y="26" width="180" height="26" as="geometry" />
        </mxCell>
        <mxCell id="KQX5GPK5ouyB3LBMSboQ-124" value="deadline: date" style="text;strokeColor=none;fillColor=none;align=left;verticalAlign=top;spacingLeft=4;spacingRight=4;overflow=hidden;rotatable=0;points=[[0,0.5],[1,0.5]];portConstraint=eastwest;whiteSpace=wrap;html=1;" vertex="1" parent="KQX5GPK5ouyB3LBMSboQ-122">
          <mxGeometry y="52" width="180" height="26" as="geometry" />
        </mxCell>
        <mxCell id="KQX5GPK5ouyB3LBMSboQ-134" value="" style="endArrow=open;endFill=1;endSize=12;html=1;rounded=0;exitX=1;exitY=0.5;exitDx=0;exitDy=0;entryX=0.895;entryY=1.045;entryDx=0;entryDy=0;entryPerimeter=0;" edge="1" parent="WIyWlLk6GJQsqaUBKTNV-1" source="KQX5GPK5ouyB3LBMSboQ-124" target="KQX5GPK5ouyB3LBMSboQ-184">
          <mxGeometry width="160" relative="1" as="geometry">
            <mxPoint x="1070" y="970" as="sourcePoint" />
            <mxPoint x="1000" y="760" as="targetPoint" />
            <Array as="points">
              <mxPoint x="1030" y="870" />
            </Array>
          </mxGeometry>
        </mxCell>
        <mxCell id="KQX5GPK5ouyB3LBMSboQ-135" value="1" style="text;html=1;strokeColor=none;fillColor=none;align=center;verticalAlign=middle;whiteSpace=wrap;rounded=0;" vertex="1" parent="WIyWlLk6GJQsqaUBKTNV-1">
          <mxGeometry x="948" y="654" width="10" height="30" as="geometry" />
        </mxCell>
        <mxCell id="KQX5GPK5ouyB3LBMSboQ-136" value="1" style="text;html=1;strokeColor=none;fillColor=none;align=center;verticalAlign=middle;whiteSpace=wrap;rounded=0;" vertex="1" parent="WIyWlLk6GJQsqaUBKTNV-1">
          <mxGeometry x="980" y="950" width="10" height="30" as="geometry" />
        </mxCell>
        <mxCell id="KQX5GPK5ouyB3LBMSboQ-138" value="" style="endArrow=open;endFill=1;endSize=12;html=1;rounded=0;" edge="1" parent="WIyWlLk6GJQsqaUBKTNV-1">
          <mxGeometry width="160" relative="1" as="geometry">
            <mxPoint x="550" y="380" as="sourcePoint" />
            <mxPoint x="790" y="960" as="targetPoint" />
            <Array as="points">
              <mxPoint x="550" y="960" />
            </Array>
          </mxGeometry>
        </mxCell>
        <mxCell id="KQX5GPK5ouyB3LBMSboQ-139" value="1...*" style="text;html=1;strokeColor=none;fillColor=none;align=center;verticalAlign=middle;whiteSpace=wrap;rounded=0;" vertex="1" parent="WIyWlLk6GJQsqaUBKTNV-1">
          <mxGeometry x="550" y="382" width="30" height="30" as="geometry" />
        </mxCell>
        <mxCell id="KQX5GPK5ouyB3LBMSboQ-140" value="0...*" style="text;html=1;strokeColor=none;fillColor=none;align=center;verticalAlign=middle;whiteSpace=wrap;rounded=0;" vertex="1" parent="WIyWlLk6GJQsqaUBKTNV-1">
          <mxGeometry x="750" y="930" width="30" height="30" as="geometry" />
        </mxCell>
        <mxCell id="KQX5GPK5ouyB3LBMSboQ-142" value="" style="endArrow=open;endFill=1;endSize=12;html=1;rounded=0;exitX=1;exitY=0.25;exitDx=0;exitDy=0;entryX=0.389;entryY=1.077;entryDx=0;entryDy=0;entryPerimeter=0;" edge="1" parent="WIyWlLk6GJQsqaUBKTNV-1" source="KQX5GPK5ouyB3LBMSboQ-144" target="KQX5GPK5ouyB3LBMSboQ-120">
          <mxGeometry width="160" relative="1" as="geometry">
            <mxPoint x="870" y="880" as="sourcePoint" />
            <mxPoint x="650" y="880" as="targetPoint" />
            <Array as="points">
              <mxPoint x="880" y="880" />
              <mxPoint x="650" y="880" />
            </Array>
          </mxGeometry>
        </mxCell>
        <mxCell id="KQX5GPK5ouyB3LBMSboQ-143" value="0...*" style="text;html=1;strokeColor=none;fillColor=none;align=center;verticalAlign=middle;whiteSpace=wrap;rounded=0;" vertex="1" parent="WIyWlLk6GJQsqaUBKTNV-1">
          <mxGeometry x="650" y="840" width="30" height="30" as="geometry" />
        </mxCell>
        <mxCell id="KQX5GPK5ouyB3LBMSboQ-144" value="1" style="text;html=1;strokeColor=none;fillColor=none;align=center;verticalAlign=middle;whiteSpace=wrap;rounded=0;" vertex="1" parent="WIyWlLk6GJQsqaUBKTNV-1">
          <mxGeometry x="870" y="850" width="10" height="30" as="geometry" />
        </mxCell>
        <mxCell id="KQX5GPK5ouyB3LBMSboQ-145" value="KomentarUkol" style="swimlane;fontStyle=0;childLayout=stackLayout;horizontal=1;startSize=26;fillColor=none;horizontalStack=0;resizeParent=1;resizeParentMax=0;resizeLast=0;collapsible=1;marginBottom=0;whiteSpace=wrap;html=1;" vertex="1" parent="WIyWlLk6GJQsqaUBKTNV-1">
          <mxGeometry x="790" y="1120" width="180" height="104" as="geometry" />
        </mxCell>
        <mxCell id="KQX5GPK5ouyB3LBMSboQ-146" value="id: int" style="text;strokeColor=none;fillColor=none;align=left;verticalAlign=top;spacingLeft=4;spacingRight=4;overflow=hidden;rotatable=0;points=[[0,0.5],[1,0.5]];portConstraint=eastwest;whiteSpace=wrap;html=1;" vertex="1" parent="KQX5GPK5ouyB3LBMSboQ-145">
          <mxGeometry y="26" width="180" height="26" as="geometry" />
        </mxCell>
        <mxCell id="KQX5GPK5ouyB3LBMSboQ-147" value="datum: date" style="text;strokeColor=none;fillColor=none;align=left;verticalAlign=top;spacingLeft=4;spacingRight=4;overflow=hidden;rotatable=0;points=[[0,0.5],[1,0.5]];portConstraint=eastwest;whiteSpace=wrap;html=1;" vertex="1" parent="KQX5GPK5ouyB3LBMSboQ-145">
          <mxGeometry y="52" width="180" height="26" as="geometry" />
        </mxCell>
        <mxCell id="KQX5GPK5ouyB3LBMSboQ-148" value="text: string" style="text;strokeColor=none;fillColor=none;align=left;verticalAlign=top;spacingLeft=4;spacingRight=4;overflow=hidden;rotatable=0;points=[[0,0.5],[1,0.5]];portConstraint=eastwest;whiteSpace=wrap;html=1;" vertex="1" parent="KQX5GPK5ouyB3LBMSboQ-145">
          <mxGeometry y="78" width="180" height="26" as="geometry" />
        </mxCell>
        <mxCell id="KQX5GPK5ouyB3LBMSboQ-149" value="" style="endArrow=open;endFill=1;endSize=12;html=1;rounded=0;entryX=0.5;entryY=0;entryDx=0;entryDy=0;" edge="1" parent="WIyWlLk6GJQsqaUBKTNV-1" target="KQX5GPK5ouyB3LBMSboQ-145">
          <mxGeometry width="160" relative="1" as="geometry">
            <mxPoint x="880" y="990" as="sourcePoint" />
            <mxPoint x="755" y="1060" as="targetPoint" />
          </mxGeometry>
        </mxCell>
        <mxCell id="KQX5GPK5ouyB3LBMSboQ-150" value="1" style="text;html=1;strokeColor=none;fillColor=none;align=center;verticalAlign=middle;whiteSpace=wrap;rounded=0;" vertex="1" parent="WIyWlLk6GJQsqaUBKTNV-1">
          <mxGeometry x="885" y="988" width="10" height="30" as="geometry" />
        </mxCell>
        <mxCell id="KQX5GPK5ouyB3LBMSboQ-151" value="0...*" style="text;html=1;strokeColor=none;fillColor=none;align=center;verticalAlign=middle;whiteSpace=wrap;rounded=0;" vertex="1" parent="WIyWlLk6GJQsqaUBKTNV-1">
          <mxGeometry x="880" y="1080" width="30" height="30" as="geometry" />
        </mxCell>
        <mxCell id="KQX5GPK5ouyB3LBMSboQ-152" value="" style="endArrow=classic;html=1;rounded=0;entryX=0;entryY=0.5;entryDx=0;entryDy=0;" edge="1" parent="WIyWlLk6GJQsqaUBKTNV-1" target="KQX5GPK5ouyB3LBMSboQ-146">
          <mxGeometry width="50" height="50" relative="1" as="geometry">
            <mxPoint x="520" y="380" as="sourcePoint" />
            <mxPoint x="690" y="1170" as="targetPoint" />
            <Array as="points">
              <mxPoint x="520" y="1160" />
            </Array>
          </mxGeometry>
        </mxCell>
        <mxCell id="KQX5GPK5ouyB3LBMSboQ-155" value="1" style="text;html=1;strokeColor=none;fillColor=none;align=center;verticalAlign=middle;whiteSpace=wrap;rounded=0;" vertex="1" parent="WIyWlLk6GJQsqaUBKTNV-1">
          <mxGeometry x="520" y="382" width="10" height="30" as="geometry" />
        </mxCell>
        <mxCell id="KQX5GPK5ouyB3LBMSboQ-156" value="0...*" style="text;html=1;strokeColor=none;fillColor=none;align=center;verticalAlign=middle;whiteSpace=wrap;rounded=0;" vertex="1" parent="WIyWlLk6GJQsqaUBKTNV-1">
          <mxGeometry x="760" y="1130" width="30" height="30" as="geometry" />
        </mxCell>
        <mxCell id="KQX5GPK5ouyB3LBMSboQ-157" value="" style="endArrow=classic;html=1;rounded=0;entryX=0;entryY=0.077;entryDx=0;entryDy=0;entryPerimeter=0;" edge="1" parent="WIyWlLk6GJQsqaUBKTNV-1" target="KQX5GPK5ouyB3LBMSboQ-148">
          <mxGeometry width="50" height="50" relative="1" as="geometry">
            <mxPoint x="670" y="382" as="sourcePoint" />
            <mxPoint x="440" y="1200" as="targetPoint" />
            <Array as="points">
              <mxPoint x="560" y="510" />
              <mxPoint x="440" y="510" />
              <mxPoint x="440" y="1200" />
            </Array>
          </mxGeometry>
        </mxCell>
        <mxCell id="KQX5GPK5ouyB3LBMSboQ-162" value="1" style="text;html=1;strokeColor=none;fillColor=none;align=center;verticalAlign=middle;whiteSpace=wrap;rounded=0;" vertex="1" parent="WIyWlLk6GJQsqaUBKTNV-1">
          <mxGeometry x="665" y="382" width="10" height="30" as="geometry" />
        </mxCell>
        <mxCell id="KQX5GPK5ouyB3LBMSboQ-164" value="0...*" style="text;html=1;strokeColor=none;fillColor=none;align=center;verticalAlign=middle;whiteSpace=wrap;rounded=0;" vertex="1" parent="WIyWlLk6GJQsqaUBKTNV-1">
          <mxGeometry x="760" y="1170" width="30" height="30" as="geometry" />
        </mxCell>
        <mxCell id="KQX5GPK5ouyB3LBMSboQ-165" value="Posudek" style="swimlane;fontStyle=0;childLayout=stackLayout;horizontal=1;startSize=26;fillColor=none;horizontalStack=0;resizeParent=1;resizeParentMax=0;resizeLast=0;collapsible=1;marginBottom=0;whiteSpace=wrap;html=1;" vertex="1" parent="WIyWlLk6GJQsqaUBKTNV-1">
          <mxGeometry x="200" y="510" width="180" height="234" as="geometry" />
        </mxCell>
        <mxCell id="KQX5GPK5ouyB3LBMSboQ-166" value="id: int" style="text;strokeColor=none;fillColor=none;align=left;verticalAlign=top;spacingLeft=4;spacingRight=4;overflow=hidden;rotatable=0;points=[[0,0.5],[1,0.5]];portConstraint=eastwest;whiteSpace=wrap;html=1;" vertex="1" parent="KQX5GPK5ouyB3LBMSboQ-165">
          <mxGeometry y="26" width="180" height="26" as="geometry" />
        </mxCell>
        <mxCell id="KQX5GPK5ouyB3LBMSboQ-167" value="posudek_soubor: string" style="text;strokeColor=none;fillColor=none;align=left;verticalAlign=top;spacingLeft=4;spacingRight=4;overflow=hidden;rotatable=0;points=[[0,0.5],[1,0.5]];portConstraint=eastwest;whiteSpace=wrap;html=1;" vertex="1" parent="KQX5GPK5ouyB3LBMSboQ-165">
          <mxGeometry y="52" width="180" height="26" as="geometry" />
        </mxCell>
        <mxCell id="KQX5GPK5ouyB3LBMSboQ-168" value="zpristupnen_autorovi: bool" style="text;strokeColor=none;fillColor=none;align=left;verticalAlign=top;spacingLeft=4;spacingRight=4;overflow=hidden;rotatable=0;points=[[0,0.5],[1,0.5]];portConstraint=eastwest;whiteSpace=wrap;html=1;" vertex="1" parent="KQX5GPK5ouyB3LBMSboQ-165">
          <mxGeometry y="78" width="180" height="26" as="geometry" />
        </mxCell>
        <mxCell id="KQX5GPK5ouyB3LBMSboQ-188" value="aktualnost: int" style="text;strokeColor=none;fillColor=none;align=left;verticalAlign=top;spacingLeft=4;spacingRight=4;overflow=hidden;rotatable=0;points=[[0,0.5],[1,0.5]];portConstraint=eastwest;whiteSpace=wrap;html=1;" vertex="1" parent="KQX5GPK5ouyB3LBMSboQ-165">
          <mxGeometry y="104" width="180" height="26" as="geometry" />
        </mxCell>
        <mxCell id="KQX5GPK5ouyB3LBMSboQ-189" value="zajimavost: int" style="text;strokeColor=none;fillColor=none;align=left;verticalAlign=top;spacingLeft=4;spacingRight=4;overflow=hidden;rotatable=0;points=[[0,0.5],[1,0.5]];portConstraint=eastwest;whiteSpace=wrap;html=1;" vertex="1" parent="KQX5GPK5ouyB3LBMSboQ-165">
          <mxGeometry y="130" width="180" height="26" as="geometry" />
        </mxCell>
        <mxCell id="KQX5GPK5ouyB3LBMSboQ-190" value="originalita: int" style="text;strokeColor=none;fillColor=none;align=left;verticalAlign=top;spacingLeft=4;spacingRight=4;overflow=hidden;rotatable=0;points=[[0,0.5],[1,0.5]];portConstraint=eastwest;whiteSpace=wrap;html=1;" vertex="1" parent="KQX5GPK5ouyB3LBMSboQ-165">
          <mxGeometry y="156" width="180" height="26" as="geometry" />
        </mxCell>
        <mxCell id="KQX5GPK5ouyB3LBMSboQ-191" value="odborna_uroven: int" style="text;strokeColor=none;fillColor=none;align=left;verticalAlign=top;spacingLeft=4;spacingRight=4;overflow=hidden;rotatable=0;points=[[0,0.5],[1,0.5]];portConstraint=eastwest;whiteSpace=wrap;html=1;" vertex="1" parent="KQX5GPK5ouyB3LBMSboQ-165">
          <mxGeometry y="182" width="180" height="26" as="geometry" />
        </mxCell>
        <mxCell id="KQX5GPK5ouyB3LBMSboQ-192" value="jazykova_uroven: int" style="text;strokeColor=none;fillColor=none;align=left;verticalAlign=top;spacingLeft=4;spacingRight=4;overflow=hidden;rotatable=0;points=[[0,0.5],[1,0.5]];portConstraint=eastwest;whiteSpace=wrap;html=1;" vertex="1" parent="KQX5GPK5ouyB3LBMSboQ-165">
          <mxGeometry y="208" width="180" height="26" as="geometry" />
        </mxCell>
        <mxCell id="KQX5GPK5ouyB3LBMSboQ-169" value="" style="endArrow=classic;html=1;rounded=0;exitX=-0.017;exitY=0.936;exitDx=0;exitDy=0;exitPerimeter=0;entryX=0.993;entryY=0.872;entryDx=0;entryDy=0;entryPerimeter=0;" edge="1" parent="WIyWlLk6GJQsqaUBKTNV-1" source="KQX5GPK5ouyB3LBMSboQ-39" target="KQX5GPK5ouyB3LBMSboQ-166">
          <mxGeometry width="50" height="50" relative="1" as="geometry">
            <mxPoint x="390" y="690" as="sourcePoint" />
            <mxPoint x="300" y="770" as="targetPoint" />
          </mxGeometry>
        </mxCell>
        <mxCell id="KQX5GPK5ouyB3LBMSboQ-170" value="1" style="text;html=1;strokeColor=none;fillColor=none;align=center;verticalAlign=middle;whiteSpace=wrap;rounded=0;" vertex="1" parent="WIyWlLk6GJQsqaUBKTNV-1">
          <mxGeometry x="770" y="530" width="10" height="30" as="geometry" />
        </mxCell>
        <mxCell id="KQX5GPK5ouyB3LBMSboQ-173" value="1" style="text;html=1;strokeColor=none;fillColor=none;align=center;verticalAlign=middle;whiteSpace=wrap;rounded=0;" vertex="1" parent="WIyWlLk6GJQsqaUBKTNV-1">
          <mxGeometry x="390" y="530" width="10" height="30" as="geometry" />
        </mxCell>
        <mxCell id="KQX5GPK5ouyB3LBMSboQ-175" value="" style="endArrow=classic;html=1;rounded=0;exitX=0;exitY=1;exitDx=0;exitDy=0;entryX=1;entryY=0;entryDx=0;entryDy=0;" edge="1" parent="WIyWlLk6GJQsqaUBKTNV-1" source="KQX5GPK5ouyB3LBMSboQ-29" target="KQX5GPK5ouyB3LBMSboQ-165">
          <mxGeometry width="50" height="50" relative="1" as="geometry">
            <mxPoint x="390" y="778" as="sourcePoint" />
            <mxPoint x="-20" y="858" as="targetPoint" />
            <Array as="points">
              <mxPoint x="490" y="480" />
            </Array>
          </mxGeometry>
        </mxCell>
        <mxCell id="KQX5GPK5ouyB3LBMSboQ-176" value="1" style="text;html=1;strokeColor=none;fillColor=none;align=center;verticalAlign=middle;whiteSpace=wrap;rounded=0;" vertex="1" parent="WIyWlLk6GJQsqaUBKTNV-1">
          <mxGeometry x="490" y="382" width="10" height="30" as="geometry" />
        </mxCell>
        <mxCell id="KQX5GPK5ouyB3LBMSboQ-177" value="0...*" style="text;html=1;strokeColor=none;fillColor=none;align=center;verticalAlign=middle;whiteSpace=wrap;rounded=0;" vertex="1" parent="WIyWlLk6GJQsqaUBKTNV-1">
          <mxGeometry x="380" y="480" width="30" height="30" as="geometry" />
        </mxCell>
      </root>
    </mxGraphModel>
  </diagram>
</mxfile>
